<?xml version="1.0" encoding="UTF-8"?>
<svg width="600" height="400" viewBox="0 0 600 400" xmlns="http://www.w3.org/2000/svg">
  <!-- Background with gradient -->
  <defs>
    <linearGradient id="bgGradient" x1="0%" y1="0%" x2="100%" y2="100%">
      <stop offset="0%" stop-color="#f8f9fa" />
      <stop offset="100%" stop-color="#e9ecef" />
    </linearGradient>
    <linearGradient id="laptopScreenGradient" x1="0%" y1="0%" x2="100%" y2="100%">
      <stop offset="0%" stop-color="#4338ca" />
      <stop offset="100%" stop-color="#3730a3" />
    </linearGradient>
    <linearGradient id="bulbGradient" x1="0%" y1="0%" x2="100%" y2="100%">
      <stop offset="0%" stop-color="#fbbf24" />
      <stop offset="100%" stop-color="#f59e0b" />
    </linearGradient>
    <linearGradient id="primaryGradient" x1="0%" y1="0%" x2="100%" y2="100%">
      <stop offset="0%" stop-color="#4f46e5" />
      <stop offset="100%" stop-color="#4338ca" />
    </linearGradient>
    <linearGradient id="secondaryGradient" x1="0%" y1="0%" x2="100%" y2="100%">
      <stop offset="0%" stop-color="#8b5cf6" />
      <stop offset="100%" stop-color="#7c3aed" />
    </linearGradient>
    <filter id="shadow" x="-20%" y="-20%" width="140%" height="140%">
      <feDropShadow dx="0" dy="4" stdDeviation="6" flood-opacity="0.15" />
    </filter>
    <filter id="glow" x="-20%" y="-20%" width="140%" height="140%">
      <feGaussianBlur stdDeviation="5" result="blur" />
      <feComposite in="SourceGraphic" in2="blur" operator="over" />
    </filter>
  </defs>
  
  <!-- Background with rounded corners -->
  <rect width="600" height="400" fill="url(#bgGradient)" rx="20" ry="20" />
  
  <!-- Decorative Elements -->
  <circle cx="100" cy="80" r="60" fill="#4f46e5" opacity="0.07" />
  <circle cx="500" cy="320" r="80" fill="#8b5cf6" opacity="0.07" />
  <circle cx="300" cy="120" r="40" fill="#10b981" opacity="0.07" />
  
  <!-- Abstract Shapes -->
  <path d="M50,50 L90,70 L70,110 Z" fill="#4f46e5" opacity="0.1" />
  <path d="M520,100 L560,120 L540,160 Z" fill="#8b5cf6" opacity="0.1" />
  <path d="M480,50 C500,30 530,30 550,50 C570,70 570,100 550,120 C530,140 500,140 480,120 C460,100 460,70 480,50 Z" fill="#10b981" opacity="0.1" />
  
  <!-- Connection Network -->
  <line x1="150" y1="150" x2="250" y2="100" stroke="#4f46e5" stroke-width="1.5" stroke-dasharray="5,5" opacity="0.4" />
  <line x1="250" y1="100" x2="350" y2="150" stroke="#4f46e5" stroke-width="1.5" stroke-dasharray="5,5" opacity="0.4" />
  <line x1="350" y1="150" x2="450" y2="100" stroke="#4f46e5" stroke-width="1.5" stroke-dasharray="5,5" opacity="0.4" />
  <line x1="150" y1="150" x2="150" y2="250" stroke="#4f46e5" stroke-width="1.5" stroke-dasharray="5,5" opacity="0.4" />
  <line x1="250" y1="100" x2="250" y2="250" stroke="#4f46e5" stroke-width="1.5" stroke-dasharray="5,5" opacity="0.4" />
  <line x1="350" y1="150" x2="350" y2="250" stroke="#4f46e5" stroke-width="1.5" stroke-dasharray="5,5" opacity="0.4" />
  <line x1="450" y1="100" x2="450" y2="250" stroke="#4f46e5" stroke-width="1.5" stroke-dasharray="5,5" opacity="0.4" />
  <line x1="150" y1="250" x2="250" y2="250" stroke="#4f46e5" stroke-width="1.5" stroke-dasharray="5,5" opacity="0.4" />
  <line x1="250" y1="250" x2="350" y2="250" stroke="#4f46e5" stroke-width="1.5" stroke-dasharray="5,5" opacity="0.4" />
  <line x1="350" y1="250" x2="450" y2="250" stroke="#4f46e5" stroke-width="1.5" stroke-dasharray="5,5" opacity="0.4" />
  
  <!-- Connection Points -->
  <circle cx="150" cy="150" r="5" fill="#4f46e5" opacity="0.6" />
  <circle cx="250" cy="100" r="5" fill="#4f46e5" opacity="0.6" />
  <circle cx="350" cy="150" r="5" fill="#4f46e5" opacity="0.6" />
  <circle cx="450" cy="100" r="5" fill="#4f46e5" opacity="0.6" />
  <circle cx="150" cy="250" r="5" fill="#4f46e5" opacity="0.6" />
  <circle cx="250" cy="250" r="5" fill="#4f46e5" opacity="0.6" />
  <circle cx="350" cy="250" r="5" fill="#4f46e5" opacity="0.6" />
  <circle cx="450" cy="250" r="5" fill="#4f46e5" opacity="0.6" />
  
  <!-- Modern Laptop -->
  <g transform="translate(300, 200)" filter="url(#shadow)">
    <!-- Laptop Base -->
    <rect x="-90" y="35" width="180" height="8" rx="4" fill="#27272a" />
    <path d="M-90,35 L-110,55 L110,55 L90,35 Z" fill="#3f3f46" />
    
    <!-- Laptop Screen -->
    <rect x="-90" y="-65" width="180" height="100" rx="8" fill="#27272a" />
    <rect x="-85" y="-60" width="170" height="90" rx="4" fill="url(#laptopScreenGradient)" />
    
    <!-- Code on Screen -->
    <rect x="-75" y="-50" width="70" height="4" rx="1" fill="#ffffff" opacity="0.8" />
    <rect x="-75" y="-40" width="50" height="4" rx="1" fill="#10b981" opacity="0.8" />
    <rect x="-75" y="-30" width="60" height="4" rx="1" fill="#ffffff" opacity="0.6" />
    <rect x="-75" y="-20" width="40" height="4" rx="1" fill="#10b981" opacity="0.8" />
    <rect x="-75" y="-10" width="55" height="4" rx="1" fill="#ffffff" opacity="0.6" />
    <rect x="-75" y="0" width="65" height="4" rx="1" fill="#10b981" opacity="0.8" />
    <rect x="-75" y="10" width="45" height="4" rx="1" fill="#ffffff" opacity="0.6" />
    
    <rect x="5" y="-50" width="60" height="4" rx="1" fill="#fbbf24" opacity="0.8" />
    <rect x="15" y="-40" width="50" height="4" rx="1" fill="#ffffff" opacity="0.6" />
    <rect x="5" y="-30" width="65" height="4" rx="1" fill="#fbbf24" opacity="0.8" />
    <rect x="25" y="-20" width="40" height="4" rx="1" fill="#ffffff" opacity="0.6" />
    <rect x="10" y="-10" width="55" height="4" rx="1" fill="#fbbf24" opacity="0.8" />
    <rect x="5" y="0" width="70" height="4" rx="1" fill="#ffffff" opacity="0.6" />
    <rect x="20" y="10" width="45" height="4" rx="1" fill="#fbbf24" opacity="0.8" />
  </g>
  
  <!-- Modern People Silhouettes -->
  <g transform="translate(180, 200)">
    <!-- Person 1 with gradient -->
    <circle cx="0" cy="-15" r="18" fill="url(#primaryGradient)" filter="url(#shadow)" />
    <path d="M-15,15 C-15,-5 15,-5 15,15 L15,30 C15,40 -15,40 -15,30 Z" fill="url(#primaryGradient)" filter="url(#shadow)" />
    <circle cx="-6" cy="-18" r="3" fill="white" opacity="0.8" />
    <circle cx="6" cy="-18" r="3" fill="white" opacity="0.8" />
    <path d="M-6,-10 C-3,-8 3,-8 6,-10" stroke="white" stroke-width="2" fill="none" opacity="0.8" />
  </g>
  
  <g transform="translate(420, 200)">
    <!-- Person 2 with gradient -->
    <circle cx="0" cy="-15" r="18" fill="url(#secondaryGradient)" filter="url(#shadow)" />
    <path d="M-15,15 C-15,-5 15,-5 15,15 L15,30 C15,40 -15,40 -15,30 Z" fill="url(#secondaryGradient)" filter="url(#shadow)" />
    <circle cx="-6" cy="-18" r="3" fill="white" opacity="0.8" />
    <circle cx="6" cy="-18" r="3" fill="white" opacity="0.8" />
    <path d="M-6,-10 C-3,-8 3,-8 6,-10" stroke="white" stroke-width="2" fill="none" opacity="0.8" />
  </g>
  
  <!-- Light Bulb with Glow -->
  <g transform="translate(300, 100)" filter="url(#glow)">
    <path d="M0,-35 C-25,-35 -25,0 0,15 C25,0 25,-35 0,-35" fill="url(#bulbGradient)" />
    <rect x="-6" y="15" width="12" height="6" rx="1" fill="#78350f" />
    <rect x="-4" y="21" width="8" height="4" rx="1" fill="#57534e" />
    <!-- Light Rays -->
    <path d="M0,-40 L0,-50" stroke="#fbbf24" stroke-width="2" opacity="0.6" />
    <path d="M-15,-35 L-25,-45" stroke="#fbbf24" stroke-width="2" opacity="0.6" />
    <path d="M15,-35 L25,-45" stroke="#fbbf24" stroke-width="2" opacity="0.6" />
    <path d="M-20,-20 L-30,-25" stroke="#fbbf24" stroke-width="2" opacity="0.6" />
    <path d="M20,-20 L30,-25" stroke="#fbbf24" stroke-width="2" opacity="0.6" />
  </g>
  
  <!-- Modern Floating Icons -->
  <g transform="translate(120, 320)" filter="url(#shadow)">
    <circle cx="0" cy="0" r="25" fill="white" />
    <path d="M-10,-10 L-10,10 L10,0 Z" fill="#4f46e5" />
  </g>
  
  <g transform="translate(480, 320)" filter="url(#shadow)">
    <circle cx="0" cy="0" r="25" fill="white" />
    <rect x="-10" y="-10" width="20" height="20" rx="2" fill="#8b5cf6" />
  </g>
  
  <g transform="translate(300, 320)" filter="url(#shadow)">
    <circle cx="0" cy="0" r="25" fill="white" />
    <path d="M-12,-5 L0,-12 L12,-5 L8,12 L0,5 L-8,12 Z" fill="#10b981" />
  </g>
</svg>
